<svg width="24" height="24" viewBox="0 0 24 24" fill="none" xmlns="http://www.w3.org/2000/svg">
<path d="M8.58825 4C7.1588 4 6 5.15879 6 6.58824V18.3529C6 18.6286 6.16048 18.8791 6.41093 18.9942C6.66138 19.1094 6.95597 19.0683 7.16527 18.8889L11.6471 15.0473L12.772 16.0115C12.9235 15.5453 13.1636 15.119 13.4724 14.7525L12.1065 13.5817C11.8421 13.3551 11.4521 13.3551 11.1877 13.5817L7.41177 16.8182V6.58824C7.41177 5.93849 7.9385 5.41176 8.58825 5.41176H14.7059C15.3557 5.41176 15.8824 5.93849 15.8824 6.58824V13.4409C16.0366 13.4217 16.1936 13.4118 16.353 13.4118C16.678 13.4118 16.9934 13.4529 17.2942 13.5304V6.58824C17.2942 5.15879 16.1354 4 14.7059 4H8.58825Z" fill="white"/>
<path d="M16.353 14.3529C16.7429 14.3529 17.0589 14.669 17.0589 15.0588V16.4706H18.4707C18.8605 16.4706 19.1766 16.7866 19.1766 17.1765C19.1766 17.5663 18.8605 17.8824 18.4707 17.8824H17.0589V19.2941C17.0589 19.684 16.7429 20 16.353 20C15.9632 20 15.6471 19.684 15.6471 19.2941V17.8824H14.2354C13.8455 17.8824 13.5295 17.5663 13.5295 17.1765C13.5295 16.7866 13.8455 16.4706 14.2354 16.4706H15.6471V15.0588C15.6471 14.669 15.9632 14.3529 16.353 14.3529Z" fill="white"/>
</svg>
