<svg width="21" height="32" viewBox="0 0 21 32" fill="none" xmlns="http://www.w3.org/2000/svg">
<path d="M20.3683 11.1018C20.3683 13.7949 20.2966 16.4881 20.3802 19.1812C20.6191 26.308 16.0796 30.0125 11.325 31.7766C10.5365 32.0706 9.83172 32.0706 9.04327 31.7648C5.54303 30.4359 2.664 28.4013 1.05127 24.932C0.394224 23.5325 0.0477848 22.0507 0.0358386 20.5101C0 14.136 0.0238924 7.75009 0 1.3642C0 0.92907 0.226978 0.90555 0.525633 0.846748C3.05823 0.352812 5.62666 0.0940833 8.20704 0.023521C12.0776 -0.0823224 15.9362 0.0940834 19.7471 0.811467C20.201 0.893789 20.3802 1.02315 20.3802 1.54061C20.3444 4.73943 20.3683 7.91474 20.3683 11.1018Z" fill="#202020"/>
<path d="M8.56542 15.1356C8.60126 16.8173 8.50569 18.4991 8.66099 20.1691C8.73267 21.004 9.13884 21.6391 9.81977 22.1213C10.0826 22.3094 10.2976 22.3212 10.5724 22.133C12.0059 21.204 11.7551 19.8633 11.8028 18.3815C11.8028 18.1228 11.8506 17.9581 12.1612 17.8875C12.9138 17.7464 13.6664 17.57 14.4191 17.3936C14.646 17.3348 14.7416 17.3818 14.7416 17.6288C14.8013 20.957 14.7655 22.8622 11.7192 24.8497C10.5963 25.6259 9.62863 25.5436 8.52958 24.8262C6.65403 23.6149 5.77001 21.8861 5.73417 19.7457C5.67444 16.4057 5.49525 13.0658 5.82974 9.7376C6.22397 5.84491 10.1782 4.90408 12.6988 6.40941C14.0965 7.2444 14.6221 8.57332 14.7177 10.1139C14.8252 11.7957 14.873 11.7721 13.2364 12.2073C12.8422 12.3131 12.1851 12.5719 11.8865 12.3249C11.6595 12.1367 11.8028 11.5134 11.7909 11.09C11.7789 10.7608 11.7789 10.4315 11.7551 10.0904C11.6953 9.06726 11.1219 8.42044 10.2259 8.40868C9.31803 8.38516 8.73267 8.97317 8.6371 10.0198C8.49375 11.7369 8.60126 13.4304 8.56542 15.1356Z" fill="#F2F7FF"/>
</svg>
